<svg xmlns="http://www.w3.org/2000/svg" width="44" height="62" viewBox="0 0 44 62"><g id="Group_5462" data-name="Group 5462" transform="translate(-142 -1034)"><path id="Rectangle_1235" fill="none" d="M0 0h44v62H0z" data-name="Rectangle 1235" transform="translate(142 1034)"/><path id="Path_26954" d="M34.51-37.1a10.772 10.772 0 01-2.8 7.8 13.759 13.759 0 01-7.56 3.815v.21q6.02.7 8.96 3.745a10.773 10.773 0 012.94 7.805 13.359 13.359 0 01-4.62 10.47Q26.81.84 16.87.84a41.8 41.8 0 01-7.28-.6 23.487 23.487 0 01-6.44-2.13v-5.74a32.93 32.93 0 006.79 2.415 29.935 29.935 0 007 .875q6.72 0 9.695-2.52a8.678 8.678 0 002.975-7 6.8 6.8 0 00-3.675-6.51q-3.675-1.96-10.325-1.96h-4.83v-5.25h4.9q6.16 0 9.345-2.485a7.9 7.9 0 003.185-6.545 6.5 6.5 0 00-2.45-5.425 10.486 10.486 0 00-6.65-1.925 18.076 18.076 0 00-6.93 1.19 35.028 35.028 0 00-5.67 3.01l-3.08-4.2a25.622 25.622 0 016.615-3.64 24.645 24.645 0 019-1.54q7.84 0 11.655 3.43a11.09 11.09 0 013.81 8.61z" data-name="Path 26954" opacity=".4" transform="translate(144 1089)"/></g></svg>