<svg xmlns="http://www.w3.org/2000/svg" width="44" height="62" viewBox="0 0 44 62"><g id="Group_5461" data-name="Group 5461" transform="translate(-142 -901)"><path id="Rectangle_1236" fill="none" d="M0 0h44v62H0z" data-name="Rectangle 1236" transform="translate(142 901)"/><path id="Path_26956" d="M36.4 0H3.36v-5.11l11.55-11.27q4.55-4.41 7.455-7.6a27.208 27.208 0 004.305-5.98 12.838 12.838 0 001.4-5.81 7.64 7.64 0 00-2.345-6.055 9.462 9.462 0 00-6.475-2.065 15.3 15.3 0 00-6.4 1.26 28.351 28.351 0 00-5.635 3.5L3.92-43.26a29.146 29.146 0 016.755-4.165 20.868 20.868 0 018.645-1.715q7.14 0 11.1 3.43a11.77 11.77 0 013.955 9.38 17.792 17.792 0 01-1.4 7.1 26.113 26.113 0 01-3.955 6.335 88.244 88.244 0 01-6.125 6.58L12.04-5.88v.28H36.4z" data-name="Path 26956" opacity=".4" transform="translate(144 957)"/></g></svg>